<svg width="20" height="19" viewBox="0 0 20 19" fill="none" xmlns="http://www.w3.org/2000/svg">
<path id="Vector" d="M14.36 11.4C14.44 10.773 14.5 10.146 14.5 9.5C14.5 8.854 14.44 8.227 14.36 7.6H17.74C17.9 8.208 18 8.8445 18 9.5C18 10.1555 17.9 10.792 17.74 11.4M12.59 16.682C13.19 15.6275 13.65 14.4875 13.97 13.3H16.92C15.9512 14.8849 14.4141 16.0854 12.59 16.682ZM12.34 11.4H7.66C7.56 10.773 7.5 10.146 7.5 9.5C7.5 8.854 7.56 8.2175 7.66 7.6H12.34C12.43 8.2175 12.5 8.854 12.5 9.5C12.5 10.146 12.43 10.773 12.34 11.4ZM10 17.062C9.17 15.922 8.5 14.6585 8.09 13.3H11.91C11.5 14.6585 10.83 15.922 10 17.062ZM6 5.7H3.08C4.03886 4.11085 5.5748 2.90841 7.4 2.318C6.8 3.3725 6.35 4.5125 6 5.7ZM3.08 13.3H6C6.35 14.4875 6.8 15.6275 7.4 16.682C5.57862 16.0851 4.04485 14.8843 3.08 13.3ZM2.26 11.4C2.1 10.792 2 10.1555 2 9.5C2 8.8445 2.1 8.208 2.26 7.6H5.64C5.56 8.227 5.5 8.854 5.5 9.5C5.5 10.146 5.56 10.773 5.64 11.4M10 1.9285C10.83 3.0685 11.5 4.3415 11.91 5.7H8.09C8.5 4.3415 9.17 3.0685 10 1.9285ZM16.92 5.7H13.97C13.657 4.52339 13.1936 3.3876 12.59 2.318C14.43 2.9165 15.96 4.123 16.92 5.7ZM10 0C4.47 0 0 4.275 0 9.5C0 12.0196 1.05357 14.4359 2.92893 16.2175C3.85752 17.0997 4.95991 17.7994 6.17317 18.2769C7.38642 18.7543 8.68678 19 10 19C12.6522 19 15.1957 17.9991 17.0711 16.2175C18.9464 14.4359 20 12.0196 20 9.5C20 8.25244 19.7413 7.0171 19.2388 5.86451C18.7362 4.71191 17.9997 3.66464 17.0711 2.78249C16.1425 1.90033 15.0401 1.20056 13.8268 0.723144C12.6136 0.245725 11.3132 0 10 0Z" fill="#5D2F1B"/>
</svg>
